<svg xmlns="http://www.w3.org/2000/svg" viewBox="0 0 512 512">
  <path d="M256,0C114.62,0,0,114.62,0,256S114.62,512,256,512,512,397.38,512,256,397.38,0,256,0Z" fill="#fff"/>
  <path d="M272.05,202.35V272.5H369.7c-4.4,38.38-40.28,64.68-83.4,64.68-49.5,0-90.93-39.6-90.93-90.93s41.43-90.93,90.93-90.93c22.55,0,42.9,7.7,58.85,22.55l50.05-50.05c-28.6-25.3-66-39.6-108.9-39.6-90.93,0-163.9,72.97-163.9,163.9s72.97,163.9,163.9,163.9c82.5,0,157.3-60.5,157.3-163.9,0-12.1-1.1-20.9-3.3-30.8H272.05Z" fill="#4285f4"/>
  <path d="M272.05,202.35V272.5H369.7c-4.4,38.38-40.28,64.68-83.4,64.68-49.5,0-90.93-39.6-90.93-90.93s41.43-90.93,90.93-90.93c22.55,0,42.9,7.7,58.85,22.55l50.05-50.05c-28.6-25.3-66-39.6-108.9-39.6-90.93,0-163.9,72.97-163.9,163.9s72.97,163.9,163.9,163.9c82.5,0,157.3-60.5,157.3-163.9,0-12.1-1.1-20.9-3.3-30.8H272.05Z" fill="#4285f4"/>
  <path d="M120.3,327.6l-13.2,49.5-48.4,1.1c-17.6-32.45-27.5-69.3-27.5-108.9,0-38.5,9.9-74.8,26.4-106.7h0l43.45,7.7,19.8,44.55c-4.4,12.65-6.6,26.4-6.6,40.7,0,22,5.5,42.9,15.4,61.05Z" fill="#fbbc05"/>
  <path d="M386.2,214.45c1.1,7.7,1.65,15.4,1.65,23.65,0,8.8-1.1,17.05-2.2,25.3,0,0.55,0,1.1-0.55,2.2-5.5,29.7-20.35,56.1-41.43,75.35h0l-54.45-2.75-7.7-48.4c22-12.65,37.4-36.3,41.43-63.25H272.05v-70.15h114.15Z" fill="#4285f4"/>
  <path d="M334.5,341.35h0c-20.9,18.7-48.4,30.25-78.65,30.25-49.5,0-91.48-33-106.7-78.1l-61.6-50.6c20.9,41.43,53.9,75.9,93.5,97.9,28.05,15.4,60.5,24.2,94.6,24.2,36.3,0,70.4-9.35,99.55-25.85Z" fill="#34a853"/>
  <path d="M334.5,341.35c21.45-19.25,36.3-45.65,41.43-75.35,0-0.55,0-1.1,0.55-2.2-22,46.75-68.75,79.2-123.75,79.2-67.65,0-122.65-54.45-122.65-122.65,0-14.3,2.2-28.05,6.6-40.7l-63.25-52.8c-16.5,31.9-26.4,68.2-26.4,106.7,0,39.6,9.9,76.45,27.5,108.9,29.15,53.35,77,94.05,134.75,113.3,28.6,9.35,59.4,14.85,91.48,14.85,60.5,0,115.5-21.45,158.4-56.65Z" fill="#ea4335"/>
</svg> 